<?xml version="1.0" standalone="no"?>
<!DOCTYPE svg PUBLIC "-//W3C//DTD SVG 20010904//EN"
 "http://www.w3.org/TR/2001/REC-SVG-20010904/DTD/svg10.dtd">
<svg version="1.0" xmlns="http://www.w3.org/2000/svg"
 width="942.000000pt" height="1280.000000pt" viewBox="0 0 942.000000 1280.000000"
 preserveAspectRatio="xMidYMid meet">
<metadata>
Created by potrace 1.15, written by Peter Selinger 2001-2017
</metadata>
<g transform="translate(0.000000,1280.000000) scale(0.100000,-0.100000)"
fill="#000000" stroke="none">
<path d="M4283 12785 c-86 -24 -168 -71 -238 -136 -312 -293 -424 -920 -279
-1566 50 -224 149 -463 262 -632 101 -153 258 -300 377 -352 l48 -21 -5 -67
c-3 -37 -20 -129 -39 -204 l-34 -137 -30 0 c-16 0 -79 4 -140 10 -60 5 -240
14 -400 20 -841 31 -956 39 -1140 82 -121 28 -271 86 -705 273 -388 167 -788
328 -1036 418 -164 60 -202 77 -251 115 -44 33 -218 54 -454 56 -161 1 -179
-1 -198 -18 -50 -46 -11 -87 224 -234 93 -59 205 -134 248 -167 117 -89 164
-117 201 -118 48 -1 61 13 97 109 24 63 42 93 70 119 22 19 43 35 47 35 4 0
62 -21 127 -46 66 -25 154 -58 195 -74 115 -43 450 -183 810 -338 650 -279
604 -271 1750 -312 267 -10 550 -28 559 -36 2 -2 -4 -59 -13 -126 -68 -519
-66 -1274 5 -1993 66 -661 161 -1079 267 -1179 l31 -29 -5 -126 c-2 -69 -9
-308 -14 -531 -46 -1830 -139 -3188 -245 -3551 -7 -25 -11 -57 -8 -71 3 -18
-1 -30 -14 -39 -30 -22 -57 -68 -98 -164 -20 -49 -57 -121 -80 -160 -83 -134
-95 -186 -104 -440 -7 -198 -8 -203 -39 -268 l-31 -67 -178 -2 c-263 -4 -260
-4 -753 11 -250 7 -520 11 -600 9 l-145 -3 70 -17 c40 -10 167 -24 295 -33
602 -41 935 -67 1042 -82 l117 -16 -6 -30 c-5 -22 -1 -33 12 -44 26 -18 130
-17 223 4 42 10 97 17 122 16 83 -3 1228 -168 1239 -178 8 -9 -192 -5 -519 10
-1321 59 -2611 94 -3020 82 -107 -4 -331 -6 -497 -6 -172 0 -303 -4 -303 -9 0
-5 -57 -13 -128 -16 -70 -4 -143 -11 -162 -15 l-35 -7 50 -7 c63 -8 373 -30
895 -63 270 -16 437 -31 500 -44 83 -17 88 -19 35 -15 -115 9 -240 14 -225 10
8 -2 122 -14 253 -25 371 -32 720 -79 740 -99 33 -33 -549 -58 -2410 -103
-282 -6 -511 -14 -508 -16 2 -2 250 -33 552 -68 l548 -65 370 11 c204 5 642
17 975 25 1219 30 1411 39 1565 70 91 18 128 32 123 48 -12 39 -185 87 -508
142 -107 18 -186 34 -175 34 11 0 157 -6 325 -14 168 -8 494 -19 725 -25 231
-7 560 -20 730 -30 294 -17 365 -17 365 0 0 23 -507 83 -893 106 -65 4 -115 9
-113 11 2 2 213 -3 467 -12 975 -33 1552 -36 1581 -7 20 20 -155 61 -487 116
-120 20 -620 92 -1075 155 l-65 9 67 1 c89 1 948 -26 1213 -39 116 -6 500 -24
855 -40 355 -16 739 -35 853 -41 115 -6 211 -8 214 -5 3 2 -15 10 -38 16 -24
5 -57 15 -74 20 -25 8 -21 8 20 4 28 -3 293 -5 590 -6 470 -2 618 3 603 18
-28 28 -847 103 -2043 188 -1241 89 -2972 154 -2793 105 77 -21 675 -64 1438
-103 267 -14 616 -33 775 -41 160 -9 454 -25 655 -36 201 -10 376 -21 390 -23
54 -9 -1071 31 -1230 44 -272 21 -1200 72 -1665 90 -143 5 -327 12 -410 16
l-150 6 3 96 c3 137 30 323 59 416 14 44 52 142 84 219 66 156 89 226 89 270
0 39 -46 83 -104 98 -43 11 -46 13 -46 44 0 19 9 71 20 117 72 308 148 1226
190 2298 25 653 30 809 40 1190 16 681 16 679 44 701 14 11 34 35 46 54 17 28
29 35 63 39 23 3 83 10 132 17 249 31 529 99 1065 259 613 183 821 227 1033
217 128 -5 188 -24 249 -76 39 -33 40 -36 36 -85 -3 -31 -17 -77 -37 -116
-138 -271 -494 -641 -1406 -1460 -446 -401 -576 -520 -735 -676 -69 -67 -134
-125 -146 -128 -62 -18 -240 -476 -279 -721 -19 -116 -19 -333 0 -422 17 -81
50 -180 67 -200 51 -62 149 -12 198 101 21 47 21 49 5 93 -14 36 -16 64 -12
132 7 97 28 174 141 494 l76 219 -40 45 c-22 25 -51 70 -65 100 l-26 54 38 45
c55 68 337 332 783 733 517 464 742 676 981 917 325 330 475 524 535 689 42
116 29 191 -44 257 -95 85 -195 112 -397 105 -203 -7 -406 -49 -800 -167 -731
-218 -984 -281 -1250 -313 l-111 -13 4 154 c7 265 -13 425 -202 1622 -91 572
-129 937 -124 1200 l3 165 160 22 c427 60 982 118 1365 143 353 23 715 72
1594 215 120 20 224 34 230 32 6 -2 27 2 46 8 20 7 60 16 90 20 30 4 64 14 75
21 28 20 167 19 211 -2 39 -19 64 -14 399 81 178 50 220 67 234 93 16 29 -1
38 -120 67 -128 31 -186 55 -265 106 -124 80 -164 69 -334 -95 -69 -67 -136
-131 -150 -143 -28 -25 -216 -58 -1025 -182 -513 -79 -669 -99 -855 -111 -510
-33 -960 -79 -1442 -146 -97 -13 -184 -24 -192 -24 -12 0 -11 13 4 84 10 46
23 101 29 123 6 21 12 61 14 88 l5 50 71 7 c133 14 279 102 376 228 384 499
339 1545 -92 2159 -60 86 -205 227 -277 270 -131 78 -297 109 -413 76z m256
-144 c154 -58 305 -214 431 -443 23 -43 40 -78 37 -78 -3 0 -24 9 -48 20 -185
83 -355 -111 -295 -335 68 -257 349 -320 451 -102 l22 47 17 -87 c71 -384 56
-728 -45 -1021 -67 -195 -185 -355 -311 -422 -53 -28 -76 -35 -144 -38 -105
-6 -171 14 -267 78 -259 173 -460 568 -534 1050 -21 140 -24 463 -5 593 59
402 225 676 457 754 54 18 166 10 234 -16z m403 -616 c104 -71 120 -282 25
-331 -86 -45 -190 48 -204 181 -7 66 10 117 48 150 39 32 84 32 131 0z m-432
-3820 c28 -181 71 -458 96 -615 85 -543 106 -741 102 -955 -3 -142 -4 -150
-23 -150 -24 0 -32 23 -69 185 -62 279 -113 663 -146 1115 -12 163 -30 634
-29 750 2 104 4 91 69 -330z"/>
<path d="M4194 11981 c-156 -71 -180 -330 -45 -483 42 -48 123 -88 178 -88 49
0 120 30 151 63 49 53 67 107 67 202 0 76 -4 99 -26 145 -69 148 -206 215
-325 161z m177 -137 c114 -111 77 -338 -52 -321 -115 15 -189 190 -130 306 38
73 116 79 182 15z"/>
<path d="M4950 10783 c-110 -68 -266 -140 -340 -157 -77 -19 -184 -20 -247 -5
-37 10 -47 9 -54 -2 -28 -44 5 -64 125 -75 154 -14 351 54 584 202 52 34 52
34 36 59 -9 14 -19 25 -23 25 -3 0 -40 -21 -81 -47z"/>
<path d="M1958 383 c7 -3 16 -2 19 1 4 3 -2 6 -13 5 -11 0 -14 -3 -6 -6z"/>
</g>
</svg>
