<?xml version="1.0" standalone="no"?>
<!DOCTYPE svg PUBLIC "-//W3C//DTD SVG 20010904//EN"
 "http://www.w3.org/TR/2001/REC-SVG-20010904/DTD/svg10.dtd">
<svg version="1.0" xmlns="http://www.w3.org/2000/svg"
 width="640.000000pt" height="1280.000000pt" viewBox="0 0 640.000000 1280.000000"
 preserveAspectRatio="xMidYMid meet">
<g transform="translate(0.000000,1280.000000) scale(0.100000,-0.100000)"
fill="#000000" stroke="none">
<path d="M2876 12780 c-430 -112 -696 -636 -696 -1368 0 -592 196 -1194 511
-1569 130 -154 323 -282 484 -320 39 -9 74 -20 79 -24 10 -9 -5 -77 -40 -174
l-25 -70 -107 -34 c-208 -67 -431 -133 -757 -227 -620 -178 -805 -240 -1011
-339 -133 -63 -220 -119 -292 -189 -80 -77 -86 -92 -78 -209 26 -371 223 -650
645 -911 52 -32 229 -127 395 -212 203 -104 311 -166 333 -189 44 -46 59 -105
43 -172 l-13 -51 83 -189 c118 -266 195 -424 220 -451 45 -48 65 -10 74 143 9
145 31 232 94 365 42 87 51 101 55 80 3 -14 8 -155 11 -315 6 -308 25 -598 53
-817 23 -185 23 -192 -6 -196 l-24 -4 7 -116 c3 -65 10 -223 16 -352 69 -1622
15 -2741 -155 -3218 -51 -141 -83 -188 -175 -252 -12 -8 -25 -31 -29 -50 -9
-47 -59 -79 -234 -149 -77 -31 -145 -63 -150 -72 -20 -33 1 -63 86 -121 47
-32 132 -103 190 -158 111 -106 145 -125 197 -110 39 11 114 66 163 119 49 53
114 85 235 117 229 61 206 85 -258 277 -65 27 -106 50 -108 60 -2 9 19 39 47
67 175 175 273 681 311 1592 18 449 10 1284 -19 1908 -5 99 -5 179 0 184 6 6
22 -4 43 -27 39 -43 79 -60 122 -52 21 3 35 1 43 -9 18 -22 105 -382 135 -556
42 -250 57 -417 63 -713 13 -633 -68 -1191 -287 -1966 -102 -364 -109 -394
-90 -429 21 -38 74 -61 192 -82 75 -14 129 -31 200 -65 53 -25 152 -64 220
-87 121 -41 125 -42 268 -42 205 -1 230 10 435 197 l60 54 -145 0 c-210 -1
-430 47 -733 160 l-148 55 -27 -25 c-32 -30 -121 -72 -174 -81 -34 -6 -38 -5
-38 15 0 12 36 148 79 303 146 519 217 876 267 1331 21 193 30 725 15 923 -28
366 -95 735 -186 1025 -24 74 -24 80 -9 109 68 131 89 288 88 658 0 318 -4
392 -64 1190 -54 724 -69 970 -76 1295 -7 284 5 574 29 720 11 65 14 70 39 73
30 4 472 -63 728 -109 399 -72 593 -129 790 -231 103 -53 190 -120 190 -145 0
-26 -113 -243 -188 -362 -147 -232 -296 -415 -532 -655 -260 -265 -580 -538
-668 -571 -96 -36 -200 -95 -230 -130 -28 -31 -32 -43 -32 -94 0 -48 7 -73 44
-147 55 -114 73 -187 85 -348 10 -141 21 -168 60 -146 24 12 97 160 231 463
l83 187 -13 54 c-18 77 -6 109 92 248 18 25 78 86 133 134 290 253 600 599
792 884 106 158 263 459 263 505 0 39 -125 142 -253 210 -256 136 -555 209
-1337 326 -118 18 -221 37 -228 42 -7 6 -10 19 -6 31 3 12 23 77 44 146 21 69
42 139 45 157 6 28 16 36 101 78 272 132 459 445 538 900 97 555 -22 1249
-295 1727 -180 315 -408 513 -672 583 -106 29 -145 29 -241 5z m294 -165 c199
-87 399 -294 531 -550 19 -35 31 -67 27 -70 -4 -4 -28 1 -55 11 -164 63 -324
-33 -353 -214 -20 -117 22 -260 101 -346 63 -69 122 -97 203 -98 107 0 179 47
231 150 19 38 30 51 37 44 6 -6 21 -62 34 -124 85 -408 69 -864 -41 -1195 -86
-257 -231 -456 -390 -533 -54 -26 -212 -46 -282 -35 -65 9 -209 86 -288 152
-276 232 -484 660 -576 1188 -31 174 -38 553 -14 732 64 479 256 808 529 905
79 29 220 20 306 -17z m468 -719 c104 -54 163 -237 114 -349 -34 -77 -120
-109 -191 -73 -73 38 -131 151 -131 257 0 73 17 116 59 152 37 31 103 37 149
13z m-533 -2922 c-121 -469 -203 -1199 -222 -1961 -3 -151 -10 -276 -15 -279
-4 -3 -13 7 -19 23 -24 64 -81 102 -273 182 -54 23 -135 63 -179 90 -45 27
-212 116 -372 199 -378 194 -477 255 -639 391 -207 174 -336 423 -336 647 0
99 10 114 122 191 194 134 418 218 1128 423 425 123 600 175 735 219 50 16 93
26 98 22 4 -4 -9 -70 -28 -147z m29 -1269 c4 -66 18 -264 31 -440 88 -1163
104 -1480 86 -1727 -13 -187 -23 -237 -48 -256 -47 -34 -60 2 -93 256 -44 339
-54 536 -54 1132 0 426 4 628 17 820 17 252 23 316 34 355 6 20 6 20 13 0 4
-11 11 -74 14 -140z"/>
<path d="M2753 11799 c-138 -68 -184 -252 -112 -445 33 -86 124 -177 202 -199
121 -35 244 18 300 130 51 101 34 288 -34 388 -70 103 -145 147 -249 147 -46
0 -77 -6 -107 -21z m171 -103 c73 -31 136 -149 136 -257 0 -106 -45 -169 -128
-177 -83 -8 -151 46 -191 153 -68 182 36 343 183 281z"/>
<path d="M3335 10371 c-120 -34 -287 -128 -400 -226 l-40 -34 22 -22 21 -22
49 40 c201 168 447 259 570 212 36 -13 88 -64 104 -100 12 -31 20 -34 49 -19
16 9 17 14 8 42 -17 47 -95 121 -144 136 -57 17 -168 14 -239 -7z"/>
</g>
</svg>
